<svg id="Capa_1" data-name="Capa 1" xmlns="http://www.w3.org/2000/svg" viewBox="0 0 1054 1080"><defs><style>.cls-1{fill:#070743;}.cls-2{fill:#169d99;}</style></defs><title>Mesa de trabajo 1</title><path class="cls-1" d="M840-193q20.63,0,41.22,1.08t41.11,3.22q20.53,2.14,40.92,5.36t40.63,7.49q20.22,4.28,40.22,9.6t39.74,11.68q19.73,6.36,39.15,13.74t38.46,15.77q19,8.39,37.7,17.75T1236-87.61q18.19,10.32,35.88,21.59t34.83,23.43q17.14,12.18,33.71,25.23t32.5,27q15.94,13.89,31.22,28.61T1434,68.41q14.58,15.5,28.43,31.72t26.93,33.17q13.08,16.94,25.36,34.54t23.74,35.81q11.46,18.22,22.06,37t20.32,38.12q9.72,19.32,18.54,39.13t16.71,40q7.89,20.24,14.84,40.87t12.93,41.59q6,21,11,42.22t9,42.74q4,21.5,7.05,43.16t5,43.48q2,21.81,3,43.69t1,43.79q0,21.91-1,43.79T1676,787q-2,21.81-5,43.48t-7.05,43.16q-4,21.48-9,42.74t-11,42.22q-6,21-12.93,41.59T1616.06,1041q-7.89,20.25-16.71,40t-18.54,39.13q-9.72,19.32-20.32,38.12t-22.06,37q-11.45,18.21-23.74,35.81t-25.36,34.54q-13.08,16.93-26.93,33.17T1434,1330.59q-14.58,15.5-29.86,30.21t-31.22,28.61q-15.95,13.9-32.5,26.95t-33.71,25.23q-17.15,12.17-34.83,23.43T1236,1486.61q-18.18,10.34-36.82,19.7t-37.7,17.75q-19,8.39-38.46,15.77t-39.15,13.74q-19.74,6.36-39.74,11.68t-40.22,9.6q-20.24,4.28-40.63,7.49t-40.92,5.36q-20.52,2.15-41.11,3.22T840,1592q-20.62,0-41.22-1.08t-41.11-3.22q-20.53-2.15-40.92-5.36t-40.63-7.49q-20.22-4.27-40.22-9.6t-39.74-11.68q-19.73-6.36-39.15-13.74t-38.46-15.77q-19-8.38-37.7-17.75T444,1486.61q-18.19-10.32-35.88-21.59t-34.83-23.43q-17.15-12.18-33.71-25.23t-32.5-26.95q-15.94-13.89-31.22-28.61T246,1330.59q-14.58-15.49-28.43-31.72t-26.93-33.17q-13.08-16.93-25.36-34.54t-23.74-35.81q-11.46-18.22-22.06-37t-20.32-38.12q-9.72-19.32-18.54-39.13t-16.71-40q-7.89-20.24-14.84-40.87T36.17,958.58q-6-21-11-42.22t-9-42.74q-4-21.5-7-43.16T4,787q-2-21.81-3-43.69T0,699.5q0-21.91,1-43.79T4,612q2-21.81,5.05-43.48t7.05-43.16q4-21.48,9-42.74t11-42.22q6-21,12.93-41.59T63.94,358q7.89-20.25,16.71-40t18.54-39.13q9.72-19.32,20.32-38.12t22.06-37q11.44-18.21,23.74-35.81t25.36-34.54q13.08-16.94,26.93-33.17T246,68.41q14.58-15.49,29.86-30.21T307.11,9.59q15.94-13.9,32.5-26.95t33.71-25.23Q390.47-54.75,408.15-66T444-87.61q18.18-10.33,36.82-19.7t37.7-17.75q19.05-8.38,38.46-15.77t39.15-13.74q19.74-6.36,39.74-11.68t40.22-9.6q20.24-4.28,40.63-7.49t40.92-5.36q20.52-2.15,41.11-3.22T840-193Z"/><path class="cls-2" d="M193.59,671.54q-11.19-12.87-21.71-26.28t-20.36-27.34q-9.84-13.93-19-28.34T115,560.31q-8.4-14.85-16-30.12t-14.52-30.9q-6.89-15.65-13-31.62T60.1,435.43q-5.28-16.28-9.76-32.81t-8.13-33.28q-3.65-16.74-6.47-33.68t-4.79-34q-2-17.06-3.11-34.22t-1.41-34.38q-.29-17.22.28-34.45t2-34.43Q30.1,147,32.35,129.86T37.7,95.71q3.11-17,7-33.89t8.67-33.55Q58.15,11.61,63.7-4.85T75.6-37.46q6.36-16.17,13.49-32t15-31.37q7.91-15.51,16.55-30.64t18-29.82Q148-176,158.11-190.26t20.82-28q10.74-13.74,22.14-27t23.42-25.89q12-12.66,24.64-24.74t25.8-23.53q13.19-11.46,26.9-22.28t27.93-20.95q14.22-10.14,28.89-19.59t29.8-18.18q15.1-8.73,30.61-16.71t31.37-15.22q15.85-7.23,32-13.69t32.64-12.12q16.46-5.65,33.15-10.52t33.6-8.89q16.9-4.05,34-7.26t34.23-5.59q17.18-2.39,34.42-3.92T719-496.54q17.28-.7,34.56-.55t34.51,1.15q17.24,1,34.37,2.83t34.15,4.52q17,2.67,33.85,6.18t33.46,7.85q16.62,4.32,33,9.47T989.35-454q16.08,6,31.83,12.68t31.12,14.24q15.39,7.5,30.35,15.75t29.51,17.25q14.52,9,28.58,18.68t27.59,20.08q13.55,10.38,26.54,21.43t25.43,22.73q12.42,11.69,24.24,24t23,25.16q11.19,12.87,21.71,26.28t20.37,27.34q9.83,13.93,19,28.34t17.53,29.26q8.4,14.87,16.05,30.12t14.52,30.91q6.88,15.65,13,31.61T1401-25.92q5.29,16.28,9.76,32.81t8.13,33.28q3.64,16.74,6.47,33.67t4.79,34q2,17.07,3.11,34.23t1.41,34.38q.29,17.2-.28,34.44t-2,34.43q-1.42,17.2-3.67,34.34t-5.35,34.15q-3.09,17-7,33.89t-8.67,33.54q-4.76,16.68-10.3,33.12T1385.53,447q-6.36,16.17-13.49,32t-15,31.37q-7.9,15.51-16.54,30.63t-18,29.83q-9.36,14.7-19.43,28.94t-20.82,28q-10.74,13.75-22.14,27t-23.42,25.89q-12,12.68-24.64,24.74t-25.8,23.54q-13.18,11.46-26.9,22.27t-27.93,21q-14.2,10.14-28.89,19.59t-29.8,18.17q-15.11,8.73-30.61,16.72t-31.37,15.22q-15.86,7.23-32,13.69T946,867.63q-16.46,5.67-33.15,10.52t-33.6,8.9q-16.9,4-34,7.25t-34.23,5.6q-17.18,2.37-34.42,3.92t-34.54,2.23q-17.28.69-34.56.54t-34.51-1.14q-17.24-1-34.37-2.84t-34.15-4.51q-17-2.69-33.85-6.19t-33.46-7.84q-16.62-4.34-33-9.48T471.78,863.5Q455.7,857.56,440,850.82t-31.12-14.23q-15.37-7.5-30.35-15.76T349,803.59q-14.52-9-28.58-18.68T292.8,764.83q-13.55-10.4-26.54-21.43t-25.42-22.73q-12.43-11.68-24.25-24T193.59,671.54Z"/></svg>