<svg id="Capa_1" data-name="Capa 1" xmlns="http://www.w3.org/2000/svg" viewBox="0 0 997.82 1080"><defs><style>.cls-1{fill:#169d99;}</style></defs><title>Mesa de trabajo 1</title><path class="cls-1" d="M649.32-332q15.95,0,31.87,1.08T713-327.7q15.85,2.15,31.63,5.36T776-314.85q15.65,4.28,31.11,9.6t30.72,11.68q15.27,6.36,30.27,13.74t29.75,15.77q14.73,8.38,29.14,17.75t28.48,19.7q14.06,10.32,27.73,21.59t26.94,23.43q13.25,12.18,26.06,25.23t25.13,27q12.33,13.89,24.14,28.61t23.09,30.21q11.28,15.5,22,31.72T1151.39-5.7q10.13,16.93,19.62,34.54t18.35,35.81q8.87,18.22,17.06,37t15.71,38.12q7.51,19.32,14.33,39.13T1249.38,219q6.11,20.23,11.48,40.87t10,41.59q4.62,21,8.5,42.22t7,42.74q3.12,21.5,5.45,43.16T1295.7,473q1.56,21.81,2.34,43.69t.78,43.79q0,21.91-.78,43.79T1295.7,648q-1.58,21.81-3.91,43.48t-5.45,43.16q-3.1,21.48-7,42.74t-8.5,42.22q-4.63,21-10,41.59T1249.38,902q-6.09,20.25-12.92,40.05t-14.33,39.13q-7.52,19.32-15.71,38.12t-17.06,37q-8.85,18.21-18.35,35.81t-19.62,34.54q-10.11,16.93-20.82,33.17t-22,31.72q-11.28,15.5-23.09,30.21t-24.14,28.61q-12.33,13.9-25.13,26.95t-26.06,25.23q-13.26,12.17-26.94,23.43t-27.73,21.59q-14.07,10.34-28.48,19.7t-29.14,17.75q-14.73,8.39-29.75,15.77t-30.27,13.74q-15.25,6.36-30.72,11.68t-31.11,9.6q-15.63,4.28-31.41,7.49T713,1448.7q-15.87,2.15-31.8,3.22T649.32,1453q-15.95,0-31.87-1.08t-31.79-3.22q-15.87-2.15-31.64-5.36t-31.41-7.49q-15.63-4.27-31.1-9.6t-30.73-11.68q-15.25-6.36-30.27-13.74t-29.74-15.77q-14.73-8.38-29.14-17.75t-28.48-19.7q-14.06-10.32-27.74-21.59t-26.93-23.43q-13.26-12.18-26.06-25.23t-25.13-26.95q-12.33-13.89-24.14-28.61t-23.09-30.21q-11.28-15.49-22-31.72t-20.83-33.17q-10.11-16.93-19.61-34.54t-18.36-35.81q-8.85-18.22-17-37T76.52,981.22Q69,961.9,62.18,942.09T49.26,902q-6.09-20.24-11.47-40.87t-10-41.59q-4.62-21-8.5-42.22t-7-42.74q-3.11-21.5-5.45-43.16T3,648Q1.39,626.17.61,604.29T-.18,560.5q0-21.91.79-43.79T3,473q1.56-21.81,3.9-43.48t5.45-43.16q3.12-21.48,7-42.74t8.5-42.22q4.63-21,10-41.59T49.26,219q6.1-20.25,12.92-40.05t14.34-39.13Q84,120.46,92.23,101.66t17-37q8.86-18.21,18.36-35.81T147.25-5.7q10.13-16.93,20.83-33.17t22-31.72q11.26-15.5,23.09-30.21t24.14-28.61q12.32-13.9,25.13-27t26.06-25.23q13.26-12.16,26.93-23.43t27.74-21.59q14.07-10.33,28.48-19.7t29.14-17.75q14.73-8.38,29.74-15.77t30.27-13.74q15.27-6.36,30.73-11.68t31.1-9.6q15.64-4.27,31.41-7.49t31.64-5.36q15.87-2.15,31.79-3.22T649.32-332Z"/></svg>