<?xml version="1.0" encoding="utf-8"?>
<!-- Generator: Adobe Illustrator 22.1.0, SVG Export Plug-In . SVG Version: 6.00 Build 0)  -->
<svg version="1.1" id="Capa_1" xmlns="http://www.w3.org/2000/svg" xmlns:xlink="http://www.w3.org/1999/xlink" x="0px" y="0px"
	 viewBox="0 0 1150.8 1080" style="enable-background:new 0 0 1150.8 1080;" xml:space="preserve">
<style type="text/css">
	.st0{fill:#169D99;}
	.st1{fill:#B9CC01;}
</style>
<path class="st0" d="M1150.8,0v1080H170.6c-1.9-2.6-3.7-5.2-5.5-7.8c-8.2-11.7-16.1-23.7-23.7-35.8c-7.6-12.2-15-24.5-22.1-37
	s-13.8-25.2-20.3-38.1c-6.5-12.9-12.7-25.9-18.5-39.1C74.6,909,69,895.6,63.8,882.1C58.5,868.6,53.6,855,49,841.2
	c-4.6-13.8-8.9-27.6-12.9-41.6s-7.7-28-11-42.2s-6.3-28.4-9-42.7s-5-28.7-7-43.2S5.4,642.6,4,628c-1.3-14.5-2.3-29.1-3-43.7
	c-0.7-14.6-1-29.2-1-43.8s0.3-29.2,1-43.8c0.7-14.6,1.7-29.2,3-43.7c1.4-14.5,3-29,5.1-43.5c2-14.4,4.4-28.8,7-43.2
	c2.7-14.3,5.7-28.6,9-42.7c3.3-14.2,7-28.2,11-42.2s8.3-27.8,12.9-41.6c4.6-13.8,9.6-27.4,14.8-40.9c5.3-13.5,10.8-26.9,16.7-40.1
	c1.8-4,3.6-8,5.4-11.9c4.2-9.1,8.6-18.2,13.1-27.2c6.5-12.9,13.2-25.6,20.3-38.1s14.4-24.9,22.1-37c7.6-12.1,15.5-24.1,23.7-35.8
	c2.1-3,4.2-5.9,6.2-8.8L1150.8,0L1150.8,0z"/>
<path class="st1" d="M1150.8,0v928.8c-7.3-0.2-14.6-0.4-22-0.8c-20-0.9-39.9-2.3-59.7-4.2c-19.9-1.9-39.6-4.3-59.3-7.2
	c-19.7-2.9-39.2-6.3-58.7-10.2s-38.8-8.3-58-13.2s-38.3-10.2-57.2-16.1c-18.9-5.9-37.7-12.2-56.2-19s-36.9-14.1-55.1-21.8
	c-18.2-7.8-36.1-16-53.9-24.6c-17.7-8.7-35.2-17.8-52.5-27.4c-17.2-9.6-34.2-19.6-51-30c-16.7-10.5-33.2-21.3-49.3-32.7
	s-32-23-47.6-35.2c-15.6-12.1-30.8-24.7-45.8-37.6c-14.9-12.9-29.5-26.2-43.8-40c-14.3-13.7-28.2-27.8-41.7-42.2
	c-13.6-14.4-26.7-29.2-39.5-44.4c-12.8-15.1-25.2-30.6-37.3-46.4c-12-15.8-23.7-31.9-34.9-48.3s-22-33.1-32.5-50.1
	c-10.4-17-20.4-34.3-29.9-51.8s-18.7-35.3-27.3-53.4c-8.7-18-16.9-36.3-24.7-54.8s-15.1-37.2-22-56.1c-1.7-4.8-3.5-9.6-5.1-14.4
	c-5-14.2-9.6-28.5-14.1-42.9c-5.9-19.3-11.4-38.7-16.4-58.3c-3.9-15.2-7.4-30.4-10.7-45.8h1106.2V0z"/>
</svg>
